<svg id="Layer_1" data-name="Layer 1" xmlns="http://www.w3.org/2000/svg" viewBox="0 0 1000 1000"><defs><style>.cls-1{fill:red;}.cls-2{fill:#fff;}.cls-3{fill:#fcfcfc;}</style></defs><title>Artboard 1</title><path class="cls-1" d="M112.05,414.73a86.45,86.45,0,0,1,77.31-139.2A86.54,86.54,0,0,1,306.19,159.84,86.48,86.48,0,0,1,391.43,88c44.09,0,85.29,33.43,85.8,75.62v.08c0,7.24,0,14.5,0,21.74v.06q-.3,309.63-.6,619.27v0q0,14.52,0,29.05v0c.13,40.91-41.73,76.1-84.21,76.73-40.85.58-81.56-31.84-86.85-76.61a86.54,86.54,0,0,1-104.1-121,86.5,86.5,0,0,1-79.85-135.78,86.51,86.51,0,0,1-9.53-162.51Z"/><path class="cls-2" d="M360.35,242.61c-18-11.31-89.71,28.72-91.93,87.16-1.55,41,31.17,82.85,80.6,94a7.61,7.61,0,0,0,9.13-6.08l1.91-10.53a8.27,8.27,0,0,0-6.17-9.57c-24.45-5.7-46.09-22.85-52-44-9-32,15-73.88,59.69-84.92a6.61,6.61,0,0,0,5.1-6.18C366.9,253.74,365.51,245.86,360.35,242.61Z"/><path class="cls-2" d="M142.59,253.24c3.18,10,16.75,41.53,49.48,67.56C229.62,350.66,273.55,351,283.73,351q-1.53-16.23-3.05-32.44a111.59,111.59,0,0,1-45.13-11.8c-47.3-24.1-57.26-73.94-58.3-79.66Z"/><path class="cls-2" d="M397.11,215.17a8.34,8.34,0,0,0-6.49-2.41h0A10.54,10.54,0,0,0,384,216c-5.58,6.12-17.31,17.24-30.93,22.51-3.38,1.31-9.7,3.53-16.05,1.46-18.13-5.89-13.77-39.87-29.09-45.59-4.49-1.68-11.79-1.35-24.05,8.18a12.09,12.09,0,0,0-4.38,12.3c3.88,16.71,16.23,46.86,41.84,56.56,27.17,10.29,63.05-2.44,87.34-33.27A9.15,9.15,0,0,0,408,226Q402.53,220.54,397.11,215.17Z"/><path class="cls-2" d="M486.31,509.46c-7.65-26.26-36.2-36.88-43-39.4a84.92,84.92,0,0,0-46.1-3.34,9.73,9.73,0,0,0-6.78,14.06l4.2,8a9.75,9.75,0,0,0,10,5.1c10.21-1.47,22.13-1.29,33.87,3.62,28.19,11.79,37.39,43.41,45.37,40.59C489.16,536.26,489.69,521.06,486.31,509.46Z"/><path class="cls-3" d="M283.35,461.7c-19.53,8.25-16.75,38.19-31.05,62.08-9.24,15.45-28.12,32.53-70,41.5a9.86,9.86,0,0,0-7.76,10.32c.39,5.92,2,11.49,6.17,15,16.42,14.11,65.36-9.62,93.12-40.59,24-26.83,31.49-58.28,33.88-78.93a9.76,9.76,0,0,0-7.83-10.73A28.45,28.45,0,0,0,283.35,461.7Z"/><path class="cls-3" d="M245.14,547.66c-4.66,18.71,32,48.89,68.05,56.12s67.06-9.45,82-19.54a9.15,9.15,0,0,0,2.25-12.92l-4.93-6.83a9.15,9.15,0,0,0-12.21-2.44c-9.83,6.09-28.29,14.72-51.55,11.88C297.35,570.09,278.89,548,271.49,537a9.15,9.15,0,0,0-11.22-3.31C253,536.82,246.73,541.27,245.14,547.66Z"/><path class="cls-3" d="M396.77,650.34c-13.28-9.54-69,18.76-74,62.08-3.5,30.08,17.93,63,53.71,76.86a11.54,11.54,0,0,0,15.67-9.65l0-.25a11.62,11.62,0,0,0-8.81-12.31c-22.25-5.74-37.79-27.09-35.52-49.87,2.19-22,20.37-39.54,42.53-41.74a11.5,11.5,0,0,0,10.4-10.58C401.21,658.34,400.29,652.87,396.77,650.34Z"/><path class="cls-3" d="M336.61,814.53c-5.17-8.51,12.14-33.21,32.54-42.08,26.24-11.41,55.49,4.24,70.51,14.52a8.11,8.11,0,0,1-.51,13.72l-1.53.89a8.09,8.09,0,0,1-9.24-.78c-5.78-4.83-17-12.11-32.1-11.73-16.74.43-32.21,10.14-40.89,25.29a8.06,8.06,0,0,1-6.81,4C343.36,818.46,338.51,817.66,336.61,814.53Z"/><path class="cls-3" d="M169.92,720.33c7.84-8.41,34-34.4,75.22-38.9,54.44-5.94,92,30.36,97.9,36.31q-.6,11.67-1.19,23.34c-8.6-8.48-31.74-29-66.86-33.72-50.22-6.78-86.34,23.85-93.13,29.83Z"/><path class="cls-3" d="M83.23,410.19a8.13,8.13,0,0,0,2.44,7c7.28,7.52,21.47,19.56,45,27.75a152,152,0,0,0,36,7.69c7.57.69,14.52-3.12,15.77-8.55l.47-2c1.26-5.46-3.73-10.61-11.24-11.75a152.51,152.51,0,0,1-27.76-6.86A124.5,124.5,0,0,1,108,404.06c-8.26-6.49-23.27-2.93-24.67,5.82Z"/><path class="cls-1" d="M876.53,586.27a86.5,86.5,0,0,1-77.32,139.2A86.54,86.54,0,0,1,682.38,841.16,86.48,86.48,0,0,1,597.14,913c-44.09,0-85.29-33.43-85.8-75.62v-.08c0-7.24,0-14.5,0-21.74v-.07q.3-309.61.6-619.27v0q0-14.51,0-29v0c-.13-40.91,41.74-76.1,84.22-76.73C637,89.81,677.75,122.23,683,167A86.54,86.54,0,0,1,787.15,288a85.6,85.6,0,0,1,9.11-.48A86.5,86.5,0,0,1,867,423.76a86.52,86.52,0,0,1,9.54,162.51Z"/><path class="cls-2" d="M628.22,758.38c18,11.32,89.71-28.71,91.93-87.15,1.56-41-31.17-82.85-80.6-94a7.6,7.6,0,0,0-9.12,6.08l-1.92,10.53a8.28,8.28,0,0,0,6.18,9.57c24.44,5.7,46.08,22.85,52,44,9,32-15,73.88-59.69,84.91a6.63,6.63,0,0,0-5.1,6.19C621.67,747.26,623.07,755.14,628.22,758.38Z"/><path class="cls-2" d="M846,747.76c-3.19-10-16.76-41.53-49.49-67.56C759,650.33,715,650,704.85,650q1.51,16.22,3,32.44A111.59,111.59,0,0,1,753,694.25c47.3,24.1,57.26,73.94,58.31,79.66Q828.66,760.83,846,747.76Z"/><path class="cls-2" d="M591.46,785.83a8.33,8.33,0,0,0,6.49,2.4h0a10.58,10.58,0,0,0,6.65-3.2c5.57-6.12,17.3-17.25,30.92-22.51,3.39-1.31,9.71-3.53,16.05-1.47,18.13,5.9,13.77,39.88,29.1,45.6,4.49,1.68,11.79,1.35,24-8.18a12.09,12.09,0,0,0,4.39-12.31c-3.89-16.7-16.23-46.86-41.85-56.56-27.17-10.29-63,2.45-87.33,33.28A9.12,9.12,0,0,0,580.6,775Z"/><path class="cls-2" d="M502.26,491.54c7.65,26.26,36.2,36.88,43,39.4a84.82,84.82,0,0,0,46.1,3.33,9.73,9.73,0,0,0,6.78-14.06l-4.19-8a9.75,9.75,0,0,0-10-5.1c-10.21,1.47-22.14,1.29-33.87-3.62-28.2-11.79-37.4-43.42-45.37-40.59C499.42,464.74,498.88,479.94,502.26,491.54Z"/><path class="cls-3" d="M705.23,539.3c19.52-8.25,16.74-38.2,31-62.09,9.24-15.44,28.13-32.52,70-41.49a9.86,9.86,0,0,0,7.76-10.32c-.39-5.92-2-11.5-6.17-15C791.48,396.24,742.54,420,714.78,451c-24,26.82-31.49,58.28-33.87,78.92a9.77,9.77,0,0,0,7.82,10.74A28.49,28.49,0,0,0,705.23,539.3Z"/><path class="cls-3" d="M743.43,453.34c4.66-18.71-32-48.89-68-56.12s-67.06,9.45-82,19.54a9.13,9.13,0,0,0-2.26,12.91l4.94,6.84A9.13,9.13,0,0,0,608.3,439c9.83-6.1,28.29-14.72,51.56-11.88,31.36,3.84,49.82,25.88,57.22,36.92a9.14,9.14,0,0,0,11.22,3.32C735.57,464.18,741.84,459.73,743.43,453.34Z"/><path class="cls-3" d="M591.8,350.66c13.29,9.54,69-18.76,74-62.08,3.49-30.08-17.94-63-53.72-76.86a11.54,11.54,0,0,0-15.67,9.65l0,.25a11.6,11.6,0,0,0,8.81,12.3c22.25,5.75,37.8,27.1,35.52,49.88-2.19,22-20.36,39.54-42.52,41.73a11.53,11.53,0,0,0-10.41,10.59C587.36,342.66,588.28,348.13,591.8,350.66Z"/><path class="cls-3" d="M652,186.46c5.16,8.51-12.14,33.21-32.55,42.09C593.19,240,563.94,224.31,548.91,214a8.12,8.12,0,0,1,.51-13.73l1.53-.88a8.09,8.09,0,0,1,9.25.78c5.77,4.82,17,12.11,32.09,11.73,16.74-.43,32.21-10.14,40.9-25.29a8,8,0,0,1,6.8-4C645.21,182.53,650.07,183.33,652,186.46Z"/><path class="cls-3" d="M818.65,280.67c-7.84,8.41-34,34.4-75.22,38.9-54.44,5.94-92-30.37-97.9-36.31q.6-11.67,1.19-23.34c8.6,8.48,31.75,29,66.86,33.71,50.22,6.79,86.35-23.84,93.13-29.82Z"/><path class="cls-3" d="M905.35,590.81a8.22,8.22,0,0,0-2.44-7c-7.29-7.51-21.48-19.55-45-27.75a151.39,151.39,0,0,0-36-7.68c-7.57-.69-14.53,3.11-15.78,8.54l-.47,2c-1.26,5.46,3.73,10.6,11.24,11.75a152.51,152.51,0,0,1,27.77,6.85,124.91,124.91,0,0,1,35.9,19.43c8.27,6.49,23.28,2.94,24.68-5.81Z"/></svg>