<svg id="Layer_1" data-name="Layer 1" xmlns="http://www.w3.org/2000/svg" viewBox="0 0 16 16"><defs><style>.cls-1{fill:red;}.cls-2{fill:#fff;}.cls-3{fill:#fcfcfc;}</style></defs><title>Favicon 2</title><path class="cls-1" d="M1.23,6.71A1.51,1.51,0,0,1,2.42,4.27h.16a1.58,1.58,0,0,1-.16-.68A1.52,1.52,0,0,1,3.93,2.09a1.47,1.47,0,0,1,.69.17A1.51,1.51,0,0,1,6.11,1a1.46,1.46,0,0,1,1.5,1.32h0V2.7h0V13.52h0V14h0a1.48,1.48,0,0,1-1.47,1.34A1.55,1.55,0,0,1,4.61,14a1.5,1.5,0,0,1-.47.08,1.51,1.51,0,0,1-1.35-2.19H2.63a1.52,1.52,0,0,1-1.51-1.51,1.5,1.5,0,0,1,.27-.87A1.53,1.53,0,0,1,.31,8.1,1.51,1.51,0,0,1,1.23,6.71Z"/><path class="cls-2" d="M5.57,3.7C5.25,3.5,4,4.2,4,5.22A1.72,1.72,0,0,0,5.37,6.87a.15.15,0,0,0,.16-.11l0-.18a.15.15,0,0,0-.11-.17,1.24,1.24,0,0,1-.91-.77,1.3,1.3,0,0,1,1-1.48.14.14,0,0,0,.09-.11C5.68,3.9,5.66,3.76,5.57,3.7Z"/><path class="cls-2" d="M1.76,3.89a2.74,2.74,0,0,0,.87,1.18,2.58,2.58,0,0,0,1.6.52L4.17,5a1.86,1.86,0,0,1-.78-.21,2,2,0,0,1-1-1.39Z"/><path class="cls-2" d="M6.21,3.22a.16.16,0,0,0-.12,0h0A.15.15,0,0,0,6,3.24a1.64,1.64,0,0,1-.54.39.42.42,0,0,1-.28,0c-.32-.1-.24-.69-.51-.79-.08,0-.21,0-.42.14a.21.21,0,0,0-.08.22,1.41,1.41,0,0,0,.73,1,1.41,1.41,0,0,0,1.53-.58.15.15,0,0,0,0-.21Z"/><path class="cls-2" d="M7.77,8.36A1.23,1.23,0,0,0,7,7.67a1.55,1.55,0,0,0-.81,0,.17.17,0,0,0-.12.24L6.16,8a.17.17,0,0,0,.18.09,1.22,1.22,0,0,1,.59.06c.49.21.66.76.79.71S7.83,8.57,7.77,8.36Z"/><path class="cls-3" d="M4.22,7.53c-.34.14-.29.67-.54,1.08a1.73,1.73,0,0,1-1.23.73.17.17,0,0,0-.13.18.35.35,0,0,0,.11.26c.28.25,1.14-.17,1.62-.71a2.57,2.57,0,0,0,.6-1.38.16.16,0,0,0-.14-.18A.49.49,0,0,0,4.22,7.53Z"/><path class="cls-3" d="M3.55,9c-.08.33.56.85,1.19,1a1.9,1.9,0,0,0,1.43-.34.15.15,0,0,0,0-.23l-.08-.12a.18.18,0,0,0-.22,0,1.36,1.36,0,0,1-.9.21,1.45,1.45,0,0,1-1-.65.15.15,0,0,0-.19-.05A.41.41,0,0,0,3.55,9Z"/><path class="cls-3" d="M6.2,10.82c-.23-.16-1.2.33-1.29,1.09a1.36,1.36,0,0,0,.94,1.34.2.2,0,0,0,.27-.17h0A.22.22,0,0,0,6,12.86a.81.81,0,0,1,.12-1.6.19.19,0,0,0,.18-.18A.29.29,0,0,0,6.2,10.82Z"/><path class="cls-3" d="M5.15,13.69c-.09-.15.21-.58.57-.73A1.35,1.35,0,0,1,7,13.21a.14.14,0,0,1,0,.24l0,0a.15.15,0,0,1-.17,0,.83.83,0,0,0-1.27.24.15.15,0,0,1-.12.07C5.27,13.76,5.18,13.75,5.15,13.69Z"/><path class="cls-3" d="M2.24,12.05a2.14,2.14,0,0,1,1.31-.68A2.16,2.16,0,0,1,5.26,12l0,.41a2,2,0,0,0-1.17-.59,2.12,2.12,0,0,0-1.62.52Z"/><path class="cls-3" d="M.72,6.63a.15.15,0,0,0,.05.12,2,2,0,0,0,.78.49,3,3,0,0,0,.63.13.26.26,0,0,0,.28-.15v0c0-.1-.07-.19-.2-.21a2.67,2.67,0,0,1-.49-.12,2.1,2.1,0,0,1-.62-.34c-.15-.11-.41,0-.43.1Z"/><path class="cls-1" d="M14.58,9.7a1.52,1.52,0,0,1-1.19,2.45h-.16a1.5,1.5,0,0,1-1.35,2.18,1.59,1.59,0,0,1-.69-.16A1.51,1.51,0,0,1,9.7,15.41a1.46,1.46,0,0,1-1.5-1.32h0v-.38h0V2.89h0V2.38h0A1.49,1.49,0,0,1,9.69,1,1.54,1.54,0,0,1,11.2,2.38a1.49,1.49,0,0,1,.47-.07A1.5,1.5,0,0,1,13,4.49h.16A1.5,1.5,0,0,1,14.69,6a1.54,1.54,0,0,1-.27.87,1.5,1.5,0,0,1,.16,2.83Z"/><path class="cls-2" d="M10.25,12.71c.31.2,1.56-.5,1.6-1.52a1.7,1.7,0,0,0-1.41-1.64.13.13,0,0,0-.16.1l0,.19a.14.14,0,0,0,.11.16,1.22,1.22,0,0,1,.91.77,1.31,1.31,0,0,1-1,1.49.1.1,0,0,0-.08.1A.38.38,0,0,0,10.25,12.71Z"/><path class="cls-2" d="M14.05,12.53a2.66,2.66,0,0,0-.86-1.18,2.58,2.58,0,0,0-1.61-.53l.06.56a2.11,2.11,0,0,1,.79.21,2,2,0,0,1,1,1.39Z"/><path class="cls-2" d="M9.6,13.19a.13.13,0,0,0,.12,0h0a.16.16,0,0,0,.11-.05,1.76,1.76,0,0,1,.54-.4.42.42,0,0,1,.28,0c.32.1.24.69.51.79.08,0,.21,0,.42-.14a.2.2,0,0,0,.08-.21,1.43,1.43,0,0,0-.73-1,1.41,1.41,0,0,0-1.53.58.17.17,0,0,0,0,.21Z"/><path class="cls-2" d="M8,8.05a1.22,1.22,0,0,0,.76.69,1.53,1.53,0,0,0,.8.06.18.18,0,0,0,.12-.25l-.07-.14a.19.19,0,0,0-.18-.09,1.11,1.11,0,0,1-.59-.06c-.49-.21-.65-.76-.79-.71S8,7.85,8,8.05Z"/><path class="cls-3" d="M11.59,8.88c.34-.14.29-.66.54-1.08a1.73,1.73,0,0,1,1.23-.73.16.16,0,0,0,.13-.18.31.31,0,0,0-.11-.26c-.28-.24-1.14.17-1.62.71a2.47,2.47,0,0,0-.59,1.38.17.17,0,0,0,.13.19A.59.59,0,0,0,11.59,8.88Z"/><path class="cls-3" d="M12.26,7.38c.08-.32-.56-.85-1.19-1a2,2,0,0,0-1.43.34A.16.16,0,0,0,9.6,7l.08.12a.16.16,0,0,0,.22,0,1.36,1.36,0,0,1,.9-.21,1.46,1.46,0,0,1,1,.65.16.16,0,0,0,.19.06A.45.45,0,0,0,12.26,7.38Z"/><path class="cls-3" d="M9.61,5.59c.23.17,1.2-.33,1.29-1.09A1.36,1.36,0,0,0,10,3.16a.2.2,0,0,0-.27.17h0a.22.22,0,0,0,.15.22.81.81,0,0,1-.12,1.6.2.2,0,0,0-.18.18A.29.29,0,0,0,9.61,5.59Z"/><path class="cls-3" d="M10.66,2.72c.09.15-.21.58-.57.74A1.38,1.38,0,0,1,8.86,3.2a.14.14,0,0,1,0-.24h0a.14.14,0,0,1,.16,0,.89.89,0,0,0,.56.21.85.85,0,0,0,.71-.45.19.19,0,0,1,.12-.07C10.54,2.65,10.63,2.67,10.66,2.72Z"/><path class="cls-3" d="M13.57,4.37a2,2,0,0,1-3,0l0-.41a2,2,0,0,0,2.79.07Z"/><path class="cls-3" d="M15.09,9.78A.16.16,0,0,0,15,9.66a1.89,1.89,0,0,0-.78-.48A2.41,2.41,0,0,0,13.63,9a.27.27,0,0,0-.28.15v0c0,.09.06.18.19.2a2.67,2.67,0,0,1,.49.12,2.21,2.21,0,0,1,.62.34c.15.11.41,0,.44-.1Z"/></svg>