<svg id="Layer_1" data-name="Layer 1" xmlns="http://www.w3.org/2000/svg" viewBox="0 0 1000 1000"><defs><style>.cls-1{fill:#3587d8;}.cls-2{fill:#fff;}.cls-3{fill:#fcfcfc;}</style></defs><title>Artboard 1 copy</title><path class="cls-1" d="M105.68,412.87a89.16,89.16,0,0,1,79.71-143.52A89.22,89.22,0,0,1,305.85,150.07,89.17,89.17,0,0,1,393.74,76c45.45,0,87.94,34.46,88.46,78v.08q0,11.2,0,22.42v.06q-.3,319.25-.62,638.5v0q0,15,0,29.95v0c.14,42.18-43,78.47-86.83,79.11-42.11.6-84.09-32.83-89.54-79A89.23,89.23,0,0,1,197.83,720.43a89.18,89.18,0,0,1-82.32-140,89.2,89.2,0,0,1-9.83-167.56Z"/><path class="cls-2" d="M361.7,235.42c-18.54-11.67-92.5,29.6-94.79,89.86-1.61,42.25,32.14,85.42,83.1,97a7.84,7.84,0,0,0,9.41-6.27l2-10.86a8.54,8.54,0,0,0-6.36-9.87c-25.21-5.87-47.52-23.56-53.65-45.34-9.3-33,15.48-76.17,61.54-87.55a6.84,6.84,0,0,0,5.26-6.38C368.45,246.89,367,238.76,361.7,235.42Z"/><path class="cls-2" d="M137.16,246.37c3.29,10.34,17.28,42.82,51,69.66,38.71,30.79,84,31.15,94.5,31.12q-1.57-16.71-3.14-33.44A115.06,115.06,0,0,1,233,301.54c-48.78-24.85-59-76.23-60.12-82.13Z"/><path class="cls-2" d="M399.59,207.12a8.58,8.58,0,0,0-6.69-2.48h0a10.93,10.93,0,0,0-6.85,3.3c-5.75,6.32-17.84,17.78-31.89,23.21-3.48,1.35-10,3.64-16.54,1.51-18.69-6.08-14.2-41.11-30-47-4.63-1.73-12.16-1.39-24.8,8.43a12.47,12.47,0,0,0-4.51,12.69c4,17.23,16.73,48.32,43.14,58.32,28,10.61,65-2.52,90.05-34.31a9.42,9.42,0,0,0-.71-12.52Z"/><path class="cls-2" d="M491.57,510.54c-7.9-27.07-37.33-38-44.32-40.62a87.62,87.62,0,0,0-47.53-3.44,10,10,0,0,0-7,14.5l4.33,8.26a10,10,0,0,0,10.35,5.26c10.53-1.51,22.83-1.33,34.93,3.73C471.4,510.4,480.88,543,489.1,540.09,494.5,538.18,495.05,522.51,491.57,510.54Z"/><path class="cls-3" d="M282.3,461.3c-20.14,8.51-17.27,39.39-32,64-9.53,15.92-29,33.54-72.22,42.78a10.17,10.17,0,0,0-8,10.64c.4,6.1,2.1,11.85,6.36,15.51,16.93,14.55,67.39-9.92,96-41.85,24.79-27.66,32.46-60.09,34.92-81.38A10.06,10.06,0,0,0,299.3,460,29.35,29.35,0,0,0,282.3,461.3Z"/><path class="cls-3" d="M242.9,549.94c-4.8,19.29,33,50.4,70.17,57.85s69.14-9.74,84.51-20.14a9.43,9.43,0,0,0,2.32-13.32l-5.09-7a9.41,9.41,0,0,0-12.58-2.52C372.09,571.06,353.06,580,329.07,577c-32.34-4-51.37-26.69-59-38.07a9.42,9.42,0,0,0-11.56-3.42C251,538.76,244.54,543.35,242.9,549.94Z"/><path class="cls-3" d="M399.24,655.8c-13.69-9.84-71.13,19.34-76.32,64-3.6,31,18.49,64.94,55.38,79.25a11.9,11.9,0,0,0,16.16-9.95l0-.26a12,12,0,0,0-9.08-12.69c-22.95-5.92-39-27.93-36.63-51.42,2.26-22.65,21-40.77,43.85-43a11.87,11.87,0,0,0,10.73-10.92C403.82,664.05,402.87,658.41,399.24,655.8Z"/><path class="cls-3" d="M337.21,825.1c-5.33-8.78,12.52-34.25,33.56-43.4,27-11.76,57.2,4.38,72.69,15a8.37,8.37,0,0,1-.52,14.16l-1.57.91a8.35,8.35,0,0,1-9.54-.81c-6-5-17.54-12.48-33.09-12.09-17.26.44-33.21,10.46-42.17,26.08a8.3,8.3,0,0,1-7,4.08C344.17,829.15,339.17,828.32,337.21,825.1Z"/><path class="cls-3" d="M165.35,728c8.08-8.68,35.09-35.47,77.55-40.11,56.13-6.13,94.82,31.3,101,37.43q-.62,12-1.24,24.07c-8.86-8.74-32.72-29.87-68.93-34.76-51.78-7-89,24.58-96,30.75Q171.51,736.65,165.35,728Z"/><path class="cls-3" d="M76,408.2a8.42,8.42,0,0,0,2.52,7.26c7.51,7.75,22.14,20.16,46.34,28.61A156.57,156.57,0,0,0,161.94,452c7.81.72,15-3.21,16.27-8.81l.48-2.09c1.3-5.63-3.84-10.93-11.59-12.11a157.25,157.25,0,0,1-28.63-7.07,128.55,128.55,0,0,1-37-20c-8.52-6.69-24-3-25.44,6Z"/><path class="cls-1" d="M893.9,589.74a89.21,89.21,0,0,1-79.72,143.53A89.22,89.22,0,0,1,693.72,852.55a89.18,89.18,0,0,1-87.89,74.07c-45.45,0-87.93-34.47-88.46-78v-.08c0-7.47,0-15,0-22.42v-.06q.32-319.25.62-638.5v-.05c0-10,0-20,0-29.94v0c-.13-42.19,43-78.47,86.83-79.11,42.12-.61,84.09,32.82,89.54,79A89.24,89.24,0,0,1,801.74,282.19a89.19,89.19,0,0,1,82.33,140,89.2,89.2,0,0,1,9.83,167.55Z"/><path class="cls-2" d="M637.88,767.2c18.53,11.67,92.5-29.6,94.78-89.86,1.61-42.25-32.13-85.42-83.1-97a7.84,7.84,0,0,0-9.41,6.27l-2,10.86a8.54,8.54,0,0,0,6.37,9.87c25.2,5.87,47.52,23.55,53.65,45.34,9.29,33-15.49,76.17-61.55,87.55a6.86,6.86,0,0,0-5.26,6.38C631.12,755.73,632.56,763.86,637.88,767.2Z"/><path class="cls-2" d="M862.41,756.25c-3.28-10.35-17.28-42.82-51-69.66-38.72-30.79-84-31.15-94.5-31.13q1.56,16.72,3.14,33.45a114.89,114.89,0,0,1,46.52,12.17c48.78,24.84,59.05,76.23,60.12,82.13Z"/><path class="cls-2" d="M600,795.5a8.59,8.59,0,0,0,6.69,2.48h0a10.93,10.93,0,0,0,6.85-3.3c5.75-6.32,17.85-17.79,31.89-23.21,3.49-1.35,10-3.64,16.55-1.52,18.69,6.08,14.19,41.12,30,47,4.63,1.73,12.16,1.39,24.8-8.43a12.49,12.49,0,0,0,4.52-12.69c-4-17.23-16.74-48.32-43.14-58.32-28-10.61-65,2.52-90,34.31a9.41,9.41,0,0,0,.7,12.52Z"/><path class="cls-2" d="M508,492.07c7.89,27.08,37.32,38,44.31,40.63a87.54,87.54,0,0,0,47.54,3.43,10,10,0,0,0,7-14.49l-4.33-8.26a10,10,0,0,0-10.35-5.26c-10.53,1.51-22.82,1.33-34.92-3.74-29.07-12.16-38.56-44.76-46.78-41.85C505.08,464.44,504.52,480.11,508,492.07Z"/><path class="cls-3" d="M717.28,541.31c20.13-8.5,17.26-39.38,32-64,9.54-15.92,29-33.54,72.22-42.79a10.15,10.15,0,0,0,8-10.64c-.4-6.09-2.1-11.84-6.36-15.5-16.93-14.55-67.39,9.91-96,41.85-24.8,27.66-32.47,60.09-34.93,81.38a10.06,10.06,0,0,0,8.07,11.06A29.23,29.23,0,0,0,717.28,541.31Z"/><path class="cls-3" d="M756.67,452.68c4.8-19.29-33-50.4-70.17-57.85S617.36,404.56,602,415a9.44,9.44,0,0,0-2.32,13.32l5.09,7a9.42,9.42,0,0,0,12.59,2.51c10.13-6.28,29.16-15.17,53.15-12.24,32.34,4,51.37,26.69,59,38.07a9.43,9.43,0,0,0,11.57,3.42C748.57,463.86,755,459.27,756.67,452.68Z"/><path class="cls-3" d="M600.33,346.82c13.7,9.84,71.13-19.34,76.32-64,3.61-31-18.49-64.93-55.38-79.24a11.91,11.91,0,0,0-16.16,9.95l0,.26a12,12,0,0,0,9.08,12.69c23,5.92,39,27.93,36.63,51.42-2.25,22.65-21,40.77-43.85,43a11.88,11.88,0,0,0-10.73,10.92C595.75,338.57,596.7,344.21,600.33,346.82Z"/><path class="cls-3" d="M662.36,177.52c5.33,8.78-12.51,34.24-33.55,43.4-27,11.76-57.21-4.38-72.7-15a8.37,8.37,0,0,1,.52-14.16l1.58-.91a8.35,8.35,0,0,1,9.53.8c6,5,14.26,11.32,33.09,12.1,17.26.71,33.21-10.46,42.17-26.08a8.31,8.31,0,0,1,7-4.08C655.4,173.47,660.4,174.3,662.36,177.52Z"/><path class="cls-3" d="M834.22,274.65c-8.08,8.67-35.08,35.47-77.55,40.11-56.13,6.13-94.82-31.31-100.94-37.44L657,253.26c8.87,8.74,32.73,29.87,68.93,34.76,51.78,7,89-24.58,96-30.75Q828.08,266,834.22,274.65Z"/><path class="cls-3" d="M923.61,594.42a8.41,8.41,0,0,0-2.51-7.26c-7.52-7.75-22.15-20.16-46.35-28.61a156,156,0,0,0-37.12-7.92c-7.8-.72-15,3.21-16.27,8.81l-.48,2.08c-1.3,5.64,3.85,10.94,11.59,12.11a158.16,158.16,0,0,1,28.63,7.08,128.55,128.55,0,0,1,37,20c8.52,6.69,24,3,25.44-6Z"/></svg>